<svg width="662" height="214" viewBox="0 0 662 214" fill="none" xmlns="http://www.w3.org/2000/svg">
<path d="M143.909 173.021C130.079 198.515 108.615 213.786 76.3472 213.786C31.5463 213.786 0 177.919 0 135.711C0 93.5019 31.5463 57.6326 76.3472 57.6326C111.351 57.6326 138.722 77.3689 147.653 109.346H133.68C126.045 84.8597 103.573 69.3018 76.3472 69.3018C39.4702 69.3018 13.1067 100.128 13.1067 135.711C13.1067 171.292 39.4702 202.118 76.3472 202.118C103.573 202.118 122.59 186.993 133.968 166.826L143.909 173.021Z" fill="#104378"/>
<path d="M176.885 5.13073e-06H189.849V210.32H176.885V5.13073e-06Z" fill="#104378"/>
<path d="M232.753 127.933H354.908C352.605 94.0784 328.114 69.014 295.129 69.014C261.996 69.014 235.92 95.8079 232.753 127.933V127.933ZM296.858 202.408C317.745 202.408 336.326 192.757 349.147 176.766L356.784 183.827C341.946 203.56 322.211 213.786 297.003 213.786C250.76 213.786 219.068 178.352 219.068 135.711C219.068 93.0702 251.193 57.6326 295.129 57.6326C337.912 57.6326 368.311 90.7643 368.311 131.532C368.311 133.981 368.017 137.007 367.588 139.026H232.32C233.471 173.451 259.546 202.408 296.858 202.408" fill="#104378"/>
<path d="M523.753 135.711C523.753 100.128 499.693 69.3018 462.817 69.3018C425.94 69.3018 401.881 100.128 401.881 135.711C401.881 171.292 425.94 202.118 462.817 202.118C499.693 202.118 523.753 171.292 523.753 135.711ZM523.753 94.5096V61.0899H536.715V210.331H523.753V176.91C511.646 198.805 489.751 213.786 461.374 213.786C417.293 213.786 388.77 177.919 388.77 135.711C388.77 93.5019 417.293 57.6326 461.374 57.6326C489.751 57.6326 511.646 72.614 523.753 94.5096" fill="#104378"/>
<path d="M587.69 61.0787H574.724V210.32H587.69V61.0787Z" fill="#104378"/>
<path fill-rule="evenodd" clip-rule="evenodd" d="M600.621 107.839C597.241 108.027 596.834 106.281 597.528 103.5C604.337 76.1136 625.721 58.3453 654.021 56.6533C655.563 56.5613 657.15 56.7134 658.672 56.7897C662.753 56.9965 662.194 58.1733 661.55 60.716C658.258 73.7053 652.026 84.8889 641.67 93.6191C631.446 102.235 619.641 106.82 606.34 107.649C604.437 107.768 602.528 107.781 600.621 107.839" fill="#66C0BE"/>
</svg>
