<svg width="119" height="40" viewBox="0 0 119 40" fill="none" xmlns="http://www.w3.org/2000/svg">
<path d="M25.8689 31.8861C23.3829 36.4688 19.5244 39.214 13.7241 39.214C5.67072 39.214 0 32.7665 0 25.1793C0 17.5919 5.67072 11.1441 13.7241 11.1441C20.0163 11.1441 24.9364 14.6918 26.5419 20.4401H24.0301C22.6577 16.0384 18.6182 13.2417 13.7241 13.2417C7.09512 13.2417 2.35605 18.7829 2.35605 25.1793C2.35605 31.5753 7.09512 37.1166 13.7241 37.1166C18.6182 37.1166 22.0366 34.3978 24.0819 30.7726L25.8689 31.8861Z" fill="white"/>
<path d="M31.7969 0.786022H34.1273V38.5929H31.7969V0.786022Z" fill="white"/>
<path d="M41.839 23.7812H63.7974C63.3833 17.6955 58.9809 13.19 53.0514 13.19C47.0956 13.19 42.4081 18.0064 41.839 23.7812ZM53.3622 37.1687C57.117 37.1687 60.457 35.4338 62.7617 32.5594L64.1346 33.8286C61.4673 37.3758 57.9198 39.214 53.3883 39.214C45.0757 39.214 39.3789 32.8444 39.3789 25.1793C39.3789 17.5143 45.1536 11.1441 53.0514 11.1441C60.7421 11.1441 66.2066 17.0998 66.2066 24.4281C66.2066 24.8684 66.1539 25.4123 66.0766 25.7752H41.7611C41.968 31.9634 46.6552 37.1687 53.3622 37.1687Z" fill="white"/>
<path d="M94.1472 25.1793C94.1472 18.7829 89.8223 13.2417 83.1934 13.2417C76.5645 13.2417 72.2396 18.7829 72.2396 25.1793C72.2396 31.5753 76.5645 37.1166 83.1934 37.1166C89.8223 37.1166 94.1472 31.5753 94.1472 25.1793ZM94.1472 17.773V11.7655H96.4772V38.593H94.1472V32.5851C91.9709 36.5209 88.035 39.214 82.9341 39.214C75.0101 39.214 69.8828 32.7665 69.8828 25.1793C69.8828 17.5919 75.0101 11.1441 82.9341 11.1441C88.035 11.1441 91.9709 13.8371 94.1472 17.773Z" fill="white"/>
<path d="M105.643 11.7655H103.312V38.5929H105.643V11.7655Z" fill="white"/>
<path fill-rule="evenodd" clip-rule="evenodd" d="M107.967 20.1685C107.359 20.2025 107.286 19.8885 107.411 19.3886C108.635 14.4657 112.479 11.2717 117.566 10.9675C117.843 10.951 118.128 10.9783 118.402 10.9921C119.135 11.0292 119.035 11.2408 118.919 11.6978C118.327 14.0328 117.207 16.0431 115.345 17.6125C113.508 19.1613 111.386 19.9854 108.995 20.1344C108.653 20.1559 108.309 20.1581 107.967 20.1685Z" fill="#66C0BE"/>
</svg>
